PathFileType	4	(X/Y/Z)	walk-thru1-1-TP.trc
DataRate	CameraRate	NumFrames	NumMarkers	Units	OrigDataRate	OrigDataStartFrame	OrigNumFrames
120.00	120.00	       5	60	mm	120.00	55	       432
Frame#	Time	Top.Head			Front.Head			Rear.Head			Jaw			C7			R.Clavicle			L.Clavicle			R.Shoulder			L.Shoulder			R.Scapula			L.Scapula			R.Scap.Inf			R.Biceps.Lateral			R.Elbow			R.Elbow.Medial			R.Forearm			R.Ulna			R.Radius			R.Wrist			R.Thumb.M1			R.Thumb.M2			R.Thumb.M3			R.Finger3.M1			R.Finger3.M2			R.Finger3.M3			L.Biceps.Lateral			L.Elbow			L.Elbow.Medial			L.Forearm			L.Ulna			L.Radius			L.Wrist			L.Thumb.M1			L.Thumb.M2			L.Thumb.M3			L.Finger3.M1			L.Finger3.M2			L.Finger3.M3			V.Sacral			R.ASIS			L.ASIS			R.Thigh			R.Thigh.Front			R.Knee			R.Knee.Medial			R.Shank			R.Ankle			R.Ankle.Medial			R.Heel			R.Toe			R.MedFoot			L.Thigh			L.Knee			L.Knee.Medial			L.Shank			L.Ankle			L.Ankle.Medial			L.Heel			L.Toe			L.MedFoot			V_mid_ASIS			V_R_Knee_JC			V_L_Knee_JC			V_R_Elbow_JC			V_L_Elbow_JC			V_R_Ankle_JC			V_L_Ankle_JC			V_R_Wrist_JC			V_L_Wrist_JC			V_R_ScaTrpz_1stMC_JC			V_R_1stMC_1stPP_JC			V_R_1stPP_1stDP_JC			V_R_LunCap_3rdMC_JC			V_R_3rdMC_3rdPP_JC			V_R_3rdPP_3rdMP_JC			V_R_3rdMP_3rdDP_JC			V_L_ScaTrpz_1stMC_JC			V_L_1stMC_1stPP_JC			V_L_1stPP_1stDP_JC			V_L_LunCap_3rdMC_JC			V_L_3rdMC_3rdPP_JC			V_L_3rdPP_3rdMP_JC			V_L_3rdMP_3rdPP_JC			V_ROOT_JC			V_R_Hip_JC			V_L_Hip_JC			V_R_GlenHum_JC			V_L_GlenHum_JC			V_ForeHead_Ctr			V_Vertex			V_Sagit_Lambdoid_Suture			V_R_FrontoTemp			V_L_FrontoTemporal			V_R_ParietalOccip			V_L_ParietalOcciptal			V_R_Temporal			V_L_Temporal			V_mid_FrontRearHead			V_mid_RLGlenHumCtrs			V_C7_vert			V_C1_vert			V_Mid_Hip			
		X1	Y1	Z1	X2	Y2	Z2	X3	Y3	Z3	X4	Y4	Z4	X5	Y5	Z5	X6	Y6	Z6	X7	Y7	Z7	X8	Y8	Z8	X9	Y9	Z9	X10	Y10	Z10	X11	Y11	Z11	X12	Y12	Z12	X13	Y13	Z13	X14	Y14	Z14	X15	Y15	Z15	X16	Y16	Z16	X17	Y17	Z17	X18	Y18	Z18	X19	Y19	Z19	X20	Y20	Z20	X21	Y21	Z21	X22	Y22	Z22	X23	Y23	Z23	X24	Y24	Z24	X25	Y25	Z25	X26	Y26	Z26	X27	Y27	Z27	X28	Y28	Z28	X29	Y29	Z29	X30	Y30	Z30	X31	Y31	Z31	X32	Y32	Z32	X33	Y33	Z33	X34	Y34	Z34	X35	Y35	Z35	X36	Y36	Z36	X37	Y37	Z37	X38	Y38	Z38	X39	Y39	Z39	X40	Y40	Z40	X41	Y41	Z41	X42	Y42	Z42	X43	Y43	Z43	X44	Y44	Z44	X45	Y45	Z45	X46	Y46	Z46	X47	Y47	Z47	X48	Y48	Z48	X49	Y49	Z49	X50	Y50	Z50	X51	Y51	Z51	X52	Y52	Z52	X53	Y53	Z53	X54	Y54	Z54	X55	Y55	Z55	X56	Y56	Z56	X57	Y57	Z57	X58	Y58	Z58	X59	Y59	Z59	X60	Y60	Z60	

55	0.450	1084.87891	35.39834	1804.34338	977.37225	25.79384	1695.67017	1205.20496	30.09372	1698.10046	1014.28113	26.99183	1529.36755	1212.04163	23.85159	1564.83728	1117.72449	143.90068	1469.05847	1098.40869	-83.03742	1474.14941	1162.37769	229.15636	1464.65430	1165.00293	-181.08264	1486.30933	1265.04700	109.73630	1481.50098	1258.82349	-56.73499	1485.06384	1312.78809	117.28135	1394.22571	1214.52100	285.99066	1287.44153	1251.92188	302.88055	1135.29980	1267.02710	213.44333	1118.00977	1163.34326	252.22246	1021.42072	1194.31360	294.38092	921.00299	1132.02026	232.24335	893.34003	1135.02429	270.52863	844.15167	1122.06543	224.95486	859.90588	1086.64453	191.68538	820.30865	1049.44482	183.74942	794.59351	1090.96558	270.63107	776.37262	1075.67371	231.55779	725.18555	1086.59387	186.90933	697.96625	1186.11353	-244.78851	1335.31653	1196.35156	-289.85428	1160.17737	1239.47839	-223.74448	1138.33704	1121.61511	-264.32895	1060.72827	1165.33301	-284.27722	966.83734	1091.83081	-232.95808	922.84869	1094.92078	-264.66418	864.58411	1078.58826	-217.67751	861.30627	1076.58008	-179.15112	815.95837	1061.99585	-182.31839	755.54547	1069.89148	-273.97775	791.20679	1074.62683	-251.08861	735.74237	1091.68640	-229.63568	690.26007	1304.25635	3.53077	1090.19275	1226.13171	199.41422	1025.81006	1186.35156	-173.57614	1035.26990	1135.79797	178.75966	623.28693	1048.89844	110.40799	532.78717	1122.33533	159.51326	487.65054	1108.20911	42.41416	489.23523	1224.63013	108.45083	341.36465	1470.37061	125.55743	221.46254	1428.20300	32.11490	217.97827	1521.14294	70.60288	253.55727	1384.60376	66.39713	73.94099	1402.77209	38.95073	136.56024	1098.90918	-148.45950	656.84143	1057.98438	-116.82536	511.38004	1061.66736	-1.84785	516.76752	1055.03711	-57.54782	313.79285	1156.61023	-72.43105	71.57402	1126.73730	19.84473	113.52248	1208.84863	-9.67892	59.87022	973.20319	-26.30516	49.98685	1038.26001	3.55742	76.48399																																																																																																																															
56	0.458	1078.23450	33.70407	1803.83777	971.75464	27.56415	1696.12622	1198.51318	29.70161	1698.70862	1006.12891	26.07060	1530.64197	1206.25757	22.48977	1565.60486	1110.97742	143.44287	1469.05554	1091.73657	-83.03510	1474.40576	1155.85071	229.92607	1464.75671	1157.44409	-180.14891	1486.20630	1257.42749	109.99273	1482.04651	1251.73315	-56.92756	1485.09338	1307.04309	116.73949	1394.56262	1209.31396	285.42532	1287.76794	1247.87488	302.31998	1136.11023	1263.46802	212.50208	1118.81665	1158.50708	253.00633	1021.17804	1191.69446	294.37433	921.77356	1129.62695	230.96555	893.55249	1130.34863	271.25604	844.53436	1118.84363	225.61874	860.26392	1083.15527	189.83122	820.41565	1046.61877	184.59720	794.93988	1087.70605	269.38626	776.41516	1072.17969	229.97935	725.33984	1082.47986	186.21651	698.10858	1177.38110	-244.38741	1336.06262	1187.79089	-290.77060	1160.35156	1229.90637	-224.90060	1139.27209	1112.15210	-264.46008	1062.31946	1155.74695	-284.94040	967.26666	1081.45874	-233.51846	924.86438	1083.89966	-265.48645	865.41650	1066.92615	-217.48676	862.87170	1065.67090	-178.97900	817.24103	1052.14111	-180.12189	757.83142	1058.89075	-273.59525	792.56689	1062.26001	-250.11328	736.92987	1078.58838	-229.36174	691.22345	1298.84143	2.99439	1090.34290	1214.71948	196.82776	1025.32068	1181.18018	-174.65843	1035.14880	1124.89856	178.53778	625.08093	1036.47913	110.64431	536.65771	1108.00110	160.40991	489.85898	1096.24048	41.61532	491.46509	1211.78845	108.67779	342.67310	1456.75024	127.25707	225.70634	1413.70923	32.82059	219.33386	1508.19958	68.91939	254.78249	1370.74353	72.54270	76.20183	1388.02563	44.23547	137.61481	1094.57935	-149.05888	656.66724	1054.67346	-117.22903	510.90381	1057.16675	-1.52099	517.21655	1053.88733	-58.28831	312.65088	1157.05286	-72.57082	71.48174	1126.68042	20.33890	113.03959	1208.77905	-9.57861	59.97061	973.09497	-26.59104	50.01630	1038.16858	3.06643	76.45058																																																																																																																															
57	0.467	1070.20593	33.53573	1804.08936	964.46021	26.00956	1696.52112	1192.70300	28.19442	1698.59790	1000.43738	26.86803	1530.33398	1199.53259	21.82981	1565.82739	1105.01477	143.55177	1469.74878	1084.28662	-83.64455	1474.78247	1150.12903	228.38469	1464.93494	1149.41907	-181.30913	1486.78796	1251.92126	109.27023	1482.79309	1246.18628	-58.19609	1486.50415	1300.74048	115.80480	1394.64526	1203.69995	285.10004	1289.28162	1243.73865	301.96793	1136.51453	1258.56091	211.91884	1119.47583	1154.05286	249.36137	1021.71124	1186.16077	292.96515	921.90833	1124.53564	230.44383	894.07098	1126.69055	270.99716	845.02557	1114.50513	224.26443	860.93060	1079.05310	190.57762	820.58850	1042.10059	184.06879	795.00385	1084.16748	269.12286	776.25409	1068.24792	228.98518	725.16486	1078.04980	186.18042	698.56122	1168.56982	-246.61739	1337.17090	1179.05908	-291.59540	1160.07739	1221.96533	-226.51509	1139.04297	1102.28442	-265.14401	1063.21716	1145.70288	-285.13834	967.93011	1070.65503	-233.79280	925.89880	1073.18567	-264.84854	867.28503	1056.42493	-217.79504	863.68427	1055.44458	-178.92592	819.08960	1040.42627	-180.32109	759.46210	1047.41394	-273.15643	794.86975	1050.29395	-250.19543	737.93188	1066.76404	-228.78767	693.50928	1293.80481	2.74295	1090.92090	1209.03772	196.43465	1026.42175	1174.90552	-174.90709	1035.46350	1113.39795	177.78984	626.51227	1022.70197	109.89969	539.50598	1094.57446	161.37132	491.94922	1084.50317	40.60988	493.87271	1197.62097	110.33508	346.80872	1444.15173	126.51655	227.81046	1399.07703	34.83913	220.24953	1494.77393	68.42476	256.38876	1353.80688	78.04871	77.49211	1373.03979	46.89861	139.55312	1092.09509	-150.25145	656.65631	1052.38892	-118.47832	510.17313	1056.32617	-3.53580	515.32648	1052.72119	-58.04477	311.95105	1156.96375	-73.04041	71.54751	1125.64380	19.53943	113.75912	1208.75916	-9.41783	60.07876	972.92810	-26.69897	49.97547	1038.16150	2.88027	76.46022																																																																																																																															
58	0.475	1063.05310	33.88226	1804.61072	957.59668	24.94281	1696.56116	1186.30518	28.44127	1700.20032	993.62250	26.18309	1530.74805	1192.99438	22.04485	1566.17590	1098.40686	143.49332	1470.20129	1079.13940	-82.64153	1474.88794	1145.11206	229.27779	1465.13879	1143.66809	-180.56844	1487.86060	1246.49573	107.91514	1483.54565	1239.06445	-57.91290	1487.37451	1294.87659	114.69872	1395.94092	1198.96265	285.02115	1290.41113	1237.07483	300.50232	1137.78601	1253.01477	211.71866	1120.36255	1150.66272	250.31224	1022.77875	1182.68530	293.43530	922.78522	1121.02710	231.14558	893.83673	1122.84851	270.50494	845.28046	1109.94226	223.83047	861.63013	1075.55322	189.39160	821.32715	1037.75989	183.82123	794.69305	1080.22070	269.44751	777.39960	1063.06726	230.26422	725.96686	1071.84741	187.81599	698.18738	1161.85498	-247.54912	1337.25745	1169.54749	-292.54507	1161.83398	1215.06909	-227.45932	1139.04700	1092.36084	-266.04636	1063.92871	1135.62036	-286.35721	968.81323	1061.85901	-232.40393	926.80518	1062.32080	-264.91339	868.33325	1047.05432	-217.08900	865.84021	1043.67908	-178.75507	820.15698	1029.86230	-179.59007	760.64789	1035.71765	-272.76007	796.09857	1039.13696	-250.25500	740.57648	1055.14734	-228.59079	694.44971	1286.01807	2.37707	1091.20227	1202.27063	195.61720	1028.41248	1172.51294	-178.07936	1036.21387	1101.78027	178.24854	628.55957	1010.28320	110.33305	542.52795	1081.52417	161.30672	494.50867	1069.57935	42.93375	496.43713	1185.96558	107.64740	347.02466	1430.82324	127.21118	230.19037	1384.72253	35.10471	220.01704	1480.71960	67.27900	256.39435	1337.34961	85.14144	79.31588	1357.35669	50.15877	140.17825	1088.37573	-151.10541	656.63617	1051.30164	-118.43474	509.71890	1054.36108	-3.22381	514.27924	1050.44934	-58.59225	311.76556	1158.31641	-72.83463	72.26882	1125.71655	19.44652	113.91285	1209.79688	-10.31937	61.87741	972.96857	-26.89085	49.78650	1038.16150	2.88027	76.46022																																																																																																																															
59	0.483	1057.29053	32.67256	1805.03308	951.07971	25.83430	1697.18835	1177.67615	28.19568	1701.21985	987.23419	26.80566	1530.72156	1186.50781	21.51064	1567.32922	1092.15308	143.14810	1471.16602	1071.48315	-83.88161	1476.14966	1138.45532	228.48834	1466.38892	1136.75232	-181.64876	1487.85986	1240.02112	107.91094	1483.96240	1231.85181	-58.31076	1487.62280	1289.06470	113.43560	1397.04126	1194.35193	284.14743	1290.57373	1232.36304	300.85950	1138.40149	1247.98743	211.77551	1121.56543	1145.55505	252.41747	1024.44470	1178.24011	292.30884	923.28149	1117.24377	229.48495	894.45361	1118.85718	269.83243	846.33563	1106.49866	223.73888	861.30768	1071.81055	189.56491	822.11328	1033.56799	184.84123	795.04517	1076.20007	269.23282	778.01062	1058.37683	231.17986	726.72083	1066.30237	188.87010	698.52026	1154.14136	-248.38397	1338.66638	1161.32324	-292.84525	1161.92773	1205.48938	-228.19287	1140.00110	1083.80786	-265.23056	1064.35828	1124.76721	-286.99368	970.62262	1052.07397	-231.89346	928.48828	1051.38745	-264.85052	870.23859	1037.19092	-217.01056	867.74890	1033.39343	-178.87680	822.01178	1019.18341	-180.18524	762.95441	1023.94232	-272.35660	797.24188	1027.62122	-250.37236	741.97375	1043.60913	-229.19542	695.21466	1281.06567	2.63700	1091.76770	1195.06738	195.13977	1029.35217	1169.02222	-178.88084	1037.02124	1089.48511	178.72499	631.06201	997.86481	109.40215	546.01990	1068.17834	160.68411	497.62152	1055.94702	41.56939	498.03687	1171.60547	109.21858	349.42130	1416.46936	128.24071	230.39700	1369.50659	36.08499	219.03677	1466.48206	66.70542	255.22200	1320.03467	90.59867	79.85035	1341.28406	53.68499	139.56979	1085.70532	-150.83246	656.56262	1049.19763	-118.33349	509.36411	1050.67175	-4.34954	515.56085	1049.61670	-58.66922	311.34482	1156.64124	-72.49861	71.58752	1125.28284	19.91405	114.37720	1208.71167	-9.45893	60.65038	972.96857	-26.89085	49.78650	1038.01343	2.62120	76.51091																																																																																																																															
